<svg version="1.0" xmlns="http://www.w3.org/2000/svg"
 width="48.000000pt" height="48.000000pt" viewBox="0 0 48.000000 48.000000"
 preserveAspectRatio="xMidYMid meet">

<g transform="translate(0.000000,48.000000) scale(0.100000,-0.100000)"
fill="#000000" stroke="none">
<path d="M0 240 l0 -240 240 0 240 0 0 240 0 240 -240 0 -240 0 0 -240z m230
65 c7 -8 9 -24 5 -37 -7 -23 -7 -23 9 -3 13 16 15 17 10 3 -5 -15 0 -18 35
-18 23 0 41 -4 41 -10 0 -5 -14 -10 -32 -10 l-32 0 28 -29 c33 -35 31 -62 -7
-75 -33 -12 -61 1 -64 30 -2 15 -1 14 7 -4 6 -15 18 -22 37 -22 27 0 26 1 -22
50 -55 56 -75 62 -75 25 0 -14 -4 -25 -9 -25 -5 0 -7 9 -4 21 4 12 0 25 -8 30
-12 8 -12 10 0 18 9 6 12 20 9 40 -4 29 -3 31 28 31 17 0 37 -7 44 -15z"/>
<path d="M170 280 c0 -27 3 -31 23 -28 16 2 22 10 22 28 0 18 -6 26 -22 28
-20 3 -23 -1 -23 -28z"/>
<path d="M255 190 c22 -23 41 -36 43 -30 5 15 -48 70 -67 70 -9 0 0 -15 24
-40z"/>
</g>
</svg>
